<svg width="20" height="20" viewBox="0 0 20 20" fill="none" xmlns="http://www.w3.org/2000/svg">
<path d="M17.7969 18.1328L16.7422 4.95703C16.7188 4.65625 16.4688 4.42578 16.168 4.42578H14.0508V4.04297C14.0547 1.8125 12.2422 0 10.0157 0C7.78912 0 5.97662 1.8125 5.97662 4.03906V4.42188H3.85943C3.55865 4.42188 3.30865 4.65234 3.28521 4.95312L2.23052 18.1289C2.19146 18.6094 2.35552 19.0859 2.68365 19.4414C3.01177 19.7969 3.47271 20 3.95709 20H16.0743C16.5547 20 17.0196 19.7969 17.3477 19.4414C17.6719 19.0898 17.836 18.6094 17.7969 18.1328ZM7.12896 4.03906C7.12896 2.44922 8.42193 1.15625 10.0118 1.15625C11.6016 1.15625 12.8946 2.44922 12.8946 4.03906V4.42188H7.12896V4.03906Z" fill="#2D2B2B"/>
</svg>
