<svg width="50" height="50" viewBox="0 0 50 50" fill="none" xmlns="http://www.w3.org/2000/svg">
<path d="M49.9884 16.8072C49.9942 16.7731 49.9975 16.7397 49.9992 16.7047C50.0009 16.6639 50 16.6247 49.9967 16.5839C49.9934 16.5488 49.9884 16.5155 49.98 16.4813C49.9709 16.4413 49.9584 16.403 49.9434 16.3646C49.9359 16.3446 49.9342 16.3238 49.925 16.3046C49.9184 16.2905 49.9067 16.2796 49.8992 16.2654C49.8917 16.2513 49.8884 16.2363 49.88 16.2221L41.5447 2.88565C41.5064 2.82481 41.4614 2.76979 41.4105 2.72145C41.4097 2.72062 41.4089 2.72062 41.408 2.71978C41.3364 2.65227 41.2513 2.60392 41.1605 2.56558C41.1488 2.56058 41.1413 2.55058 41.1288 2.54558C41.1196 2.54224 41.1096 2.54391 41.1005 2.54141C41.0163 2.51307 40.9296 2.4939 40.8387 2.4939H9.16469C9.07466 2.4939 8.98881 2.51307 8.90629 2.54057C8.89712 2.54307 8.88795 2.54141 8.87962 2.54474C8.86712 2.54891 8.85961 2.55891 8.84795 2.56391C8.76126 2.59975 8.67957 2.64643 8.60872 2.70978C8.60456 2.71395 8.59872 2.71645 8.59455 2.71978C8.54287 2.76813 8.49703 2.82397 8.45869 2.88482L0.123409 16.2213C0.115074 16.2346 0.11174 16.2504 0.104238 16.2646C0.0967362 16.2788 0.0850668 16.2896 0.0783986 16.3038C0.0692298 16.323 0.0675628 16.3438 0.0592275 16.3638C0.044224 16.4021 0.0317211 16.4405 0.0225523 16.4805C0.0150505 16.5147 0.00921581 16.5488 0.0058817 16.5839C4.70064e-05 16.6247 -0.000786521 16.6647 0.000880534 16.7047C0.00254759 16.7397 0.0058817 16.7731 0.0117164 16.8072C0.0183846 16.8472 0.0292205 16.8864 0.0425569 16.9256C0.0533928 16.9581 0.0650622 16.9898 0.0800657 17.0215C0.0875674 17.0365 0.090068 17.0531 0.0984033 17.0681C0.11174 17.0923 0.131744 17.1106 0.146748 17.1331C0.158417 17.1507 0.165086 17.1698 0.179255 17.1865L24.3424 47.1818C24.3441 47.1843 24.3457 47.186 24.3474 47.1877L24.3516 47.1935C24.3541 47.1968 24.3582 47.1977 24.3607 47.201C24.4291 47.2835 24.5141 47.346 24.6066 47.396C24.6316 47.4094 24.655 47.421 24.6808 47.4319C24.7817 47.4744 24.8884 47.5044 25 47.5044C25.0951 47.5044 25.1909 47.4877 25.2859 47.4536C25.3001 47.4486 25.3093 47.4369 25.3235 47.431C25.366 47.4135 25.3993 47.3852 25.4376 47.361C25.501 47.321 25.5602 47.2794 25.6094 47.2252C25.621 47.2127 25.6385 47.2068 25.6494 47.1935L49.8217 17.1865C49.835 17.1698 49.8417 17.1498 49.8542 17.1331C49.87 17.1106 49.8892 17.0923 49.9025 17.0681C49.9109 17.0531 49.9134 17.0365 49.9209 17.0215C49.9359 16.9898 49.9475 16.9589 49.9584 16.9256C49.97 16.8864 49.9817 16.8481 49.9884 16.8072ZM26.7521 4.16179H39.6376L35.5867 15.0352L26.7521 4.16179ZM34.0847 15.8312H15.9163L25 4.65107L34.0847 15.8312ZM14.3551 15.1077L10.355 4.16179H23.2488L14.3551 15.1077ZM34.669 17.4982L24.8542 43.8427L15.2278 17.4982H34.669ZM41.0271 5.2062L47.6678 15.832H37.0687L41.0271 5.2062ZM8.96547 5.21703L12.8439 15.8312H2.33226L8.96547 5.21703ZM13.4532 17.4982L22.4878 42.224L2.56981 17.4982H13.4532ZM26.998 42.8625L36.4477 17.4982H47.4303L26.998 42.8625Z" fill="#2D2B2B"/>
</svg>
