<svg width="50" height="50" viewBox="0 0 50 50" fill="none" xmlns="http://www.w3.org/2000/svg">
<g clip-path="url(#clip0)">
<path d="M49.8884 34.3542C49.5416 33.0903 48.4818 32.1497 47.1855 31.9553V12.9555H48.8411C49.2983 12.9555 49.6689 12.5849 49.6689 12.1277V3.84954C49.6689 3.39198 49.2983 3.02173 48.8411 3.02173H12.4172C11.9601 3.02173 11.5894 3.39198 11.5894 3.84954V12.1277C11.5894 12.5849 11.9601 12.9555 12.4172 12.9555H14.0729V29.5118H13.245C11.1905 29.507 9.17792 30.0959 7.45034 31.2079V27.0284C7.45034 26.5708 7.07968 26.2006 6.62252 26.2006H0.827816C0.370658 26.2006 0 26.5708 0 27.0284V46.0681C0 46.5253 0.370658 46.896 0.827816 46.896H6.62252C7.07968 46.896 7.45034 46.5253 7.45034 46.0681V41.889C9.17832 43.0002 11.1905 43.5891 13.245 43.5847H26.8377C27.7795 43.5831 28.7169 43.4594 29.6267 43.2169L47.5497 38.4157C49.3132 37.9351 50.3581 36.121 49.8884 34.3542ZM13.245 4.67736H48.0133V11.2999H13.245V4.67736ZM15.7285 12.9555H45.5299V32.0975L35.9223 34.674C35.5265 33.7305 34.7193 33.022 33.7327 32.7515L22.5786 29.76C21.9505 29.5947 21.3037 29.511 20.6542 29.5118H15.7285V12.9555ZM5.79471 45.2403H1.65563V27.8562H5.79471V45.2403ZM47.12 36.8162L29.2003 41.6174C28.4295 41.8232 27.6356 41.9278 26.8377 41.9291H13.245C11.2741 41.9335 9.35537 41.2941 7.78139 40.1077L7.45034 39.8595V33.237L7.78139 32.9884C9.35537 31.8021 11.2741 31.1622 13.245 31.1675H20.6542C21.1598 31.1671 21.6639 31.2325 22.1534 31.3619L33.3038 34.351C33.9627 34.5325 34.4449 35.0972 34.5201 35.7766C34.529 35.8106 34.5399 35.8441 34.5532 35.8769C34.5435 35.9124 34.5362 35.9484 34.5314 35.9852C34.5322 36.1198 34.514 36.254 34.4768 36.3833C34.282 37.1049 33.6284 37.6065 32.881 37.6077C32.7351 37.6089 32.5904 37.5903 32.4497 37.5531L25.4133 35.6663C25.1247 35.5806 24.8122 35.6582 24.5972 35.8692C24.3826 36.0802 24.2989 36.391 24.3793 36.6812C24.4598 36.9711 24.6914 37.195 24.9844 37.2649L32.0209 39.1526C32.3018 39.2265 32.5916 39.2637 32.8826 39.2633C34.3709 39.2625 35.6753 38.2669 36.0686 36.8312C36.1147 36.6651 36.1458 36.4953 36.1624 36.3239L46.2542 33.6178C46.3261 33.5996 46.4042 33.581 46.4777 33.5689C47.3019 33.4625 48.0768 33.9836 48.2898 34.7863C48.327 34.9262 48.3456 35.0705 48.3443 35.2152C48.3456 35.9646 47.8435 36.621 47.12 36.8162Z" fill="#2D2B2B"/>
<path d="M26.4902 16.2667H34.7683C35.2255 16.2667 35.5961 15.8961 35.5961 15.4389C35.5961 14.9813 35.2255 14.6111 34.7683 14.6111H26.4902C26.033 14.6111 25.6624 14.9813 25.6624 15.4389C25.6624 15.8961 26.033 16.2667 26.4902 16.2667Z" fill="#2D2B2B"/>
</g>
<defs>
<clipPath id="clip0">
<rect width="50" height="50" fill="white"/>
</clipPath>
</defs>
</svg>
