<svg width="50" height="50" viewBox="0 0 50 50" fill="none" xmlns="http://www.w3.org/2000/svg">
<path d="M38.1459 3.125C37.392 3.125 36.7787 2.51172 36.7787 1.75781C36.7787 0.788574 35.9901 0 35.0209 0C34.0516 0 33.2631 0.788574 33.2631 1.75781C33.2631 2.51172 32.6498 3.125 31.8959 3.125C30.9266 3.125 30.1381 3.91357 30.1381 4.88281C30.1381 5.85205 30.9266 6.64062 31.8959 6.64062C32.6498 6.64062 33.2631 7.25391 33.2631 8.00781C33.2631 8.97705 34.0516 9.76562 35.0209 9.76562C35.9901 9.76562 36.7787 8.97705 36.7787 8.00781C36.7787 7.25391 37.392 6.64062 38.1459 6.64062C39.1151 6.64062 39.9037 5.85205 39.9037 4.88281C39.9037 3.91357 39.1151 3.125 38.1459 3.125ZM35.0208 6.88525C34.686 5.95586 33.9477 5.21768 33.0184 4.88281C33.9477 4.54795 34.686 3.80977 35.0208 2.88037C35.3555 3.80977 36.0938 4.54795 37.0231 4.88281C36.0938 5.21768 35.3556 5.95586 35.0208 6.88525Z" fill="#2D2B2B"/>
<path d="M44.121 11.5269C43.3671 11.5269 42.7538 10.9136 42.7538 10.1597C42.7538 9.19043 41.9652 8.40186 40.996 8.40186C40.0267 8.40186 39.2382 9.19043 39.2382 10.1597C39.2382 10.9136 38.6249 11.5269 37.871 11.5269C36.9017 11.5269 36.1132 12.3154 36.1132 13.2847C36.1132 14.2539 36.9017 15.0425 37.871 15.0425C38.6249 15.0425 39.2382 15.6558 39.2382 16.4097C39.2382 17.3789 40.0267 18.1675 40.996 18.1675C41.9653 18.1675 42.7538 17.3789 42.7538 16.4097C42.7538 15.6558 43.3671 15.0425 44.121 15.0425C45.0902 15.0425 45.8788 14.2539 45.8788 13.2847C45.8788 12.3154 45.0902 11.5269 44.121 11.5269ZM40.996 15.2871C40.6612 14.3577 39.9229 13.6195 38.9936 13.2847C39.9229 12.9498 40.6612 12.2116 40.996 11.2822C41.3307 12.2116 42.069 12.9498 42.9983 13.2847C42.069 13.6195 41.3308 14.3577 40.996 15.2871Z" fill="#2D2B2B"/>
<path d="M24.1301 12.7085L20.1329 12.0027C19.7543 11.9359 19.3718 12.0973 19.1556 12.4153L17.5739 14.741C16.244 16.6981 14.248 18.0944 11.9536 18.6728C11.4306 18.8046 11.1135 19.3355 11.2453 19.8584C11.3569 20.3014 11.7546 20.5965 12.1915 20.5965C12.2705 20.5965 12.3509 20.587 12.4311 20.5665C15.1901 19.8711 17.5902 18.1921 19.1893 15.8389L20.4154 14.0359L23.7905 14.6319C24.3215 14.7254 24.8282 14.3711 24.922 13.8401C25.0157 13.3088 24.6612 12.8023 24.1301 12.7085Z" fill="#2D2B2B"/>
<path d="M31.2168 45.8271C31.2041 45.7656 31.1855 45.7041 31.1611 45.6445C31.1367 45.5859 31.1064 45.5293 31.0713 45.4766C31.0352 45.4228 30.9941 45.373 30.9492 45.3281C30.9043 45.2832 30.8545 45.2422 30.8008 45.2061C30.748 45.1709 30.6914 45.1406 30.6328 45.1162C30.5732 45.0918 30.5117 45.0732 30.4502 45.0605C30.3242 45.0352 30.1943 45.0352 30.0684 45.0605C30.0059 45.0732 29.9443 45.0918 29.8857 45.1162C29.8262 45.1406 29.7695 45.1709 29.7168 45.2061C29.6631 45.2422 29.6133 45.2832 29.5684 45.3281C29.5234 45.373 29.4824 45.4228 29.4473 45.4766C29.4121 45.5293 29.3818 45.5859 29.3574 45.6445C29.333 45.7041 29.3145 45.7656 29.3018 45.8271C29.2891 45.8906 29.2822 45.9552 29.2822 46.0186C29.2822 46.082 29.2891 46.1465 29.3018 46.209C29.3145 46.2715 29.333 46.333 29.3574 46.3916C29.3818 46.4512 29.4121 46.5078 29.4473 46.5605C29.4824 46.6143 29.5234 46.6641 29.5684 46.709C29.6133 46.7539 29.6631 46.7949 29.7168 46.8301C29.7695 46.8651 29.8262 46.8955 29.8857 46.9199C29.9443 46.9443 30.0059 46.9628 30.0684 46.9756C30.1309 46.9883 30.1953 46.995 30.2588 46.995C30.3223 46.995 30.3867 46.9883 30.4502 46.9756C30.5117 46.9628 30.5732 46.9443 30.6328 46.9199C30.6914 46.8955 30.748 46.8651 30.8008 46.8301C30.8545 46.7949 30.9043 46.7539 30.9492 46.709C30.9941 46.6641 31.0352 46.6143 31.0713 46.5605C31.1064 46.5078 31.1357 46.4512 31.1602 46.3916C31.1846 46.3331 31.2041 46.2715 31.2168 46.209C31.2295 46.1466 31.2354 46.082 31.2354 46.0186C31.2354 45.9552 31.2295 45.8906 31.2168 45.8271Z" fill="#2D2B2B"/>
<path d="M40.1254 37.2867C39.9152 37.1014 39.6352 37.0156 39.3573 37.0502C38.7816 37.1229 37.4236 37.0832 36.9016 36.4973C36.6283 36.1904 36.5771 35.679 36.7493 34.9772C37.3434 32.5578 37.5024 28.6358 37.5024 28.1945C37.5024 22.6489 36.6791 18.4 34.9856 15.2049C32.5232 10.5592 28.2606 8.20361 22.3164 8.20361C16.3722 8.20361 12.1097 10.5592 9.64719 15.2049C7.95364 18.4 7.1304 22.6489 7.1304 28.1945C7.1304 28.2339 7.17141 32.3032 7.82776 34.9771C7.99973 35.6777 7.94914 36.1885 7.67747 36.4953C7.122 37.1227 5.67883 37.1056 5.21995 37.0503C4.94163 37.0157 4.66213 37.1014 4.45188 37.2868C4.24172 37.4722 4.12122 37.739 4.12122 38.0192C4.12122 39.4983 4.96995 41.5471 8.89495 43.1066V49.0234C8.89495 49.5627 9.33215 50 9.87151 50H34.7059C35.2452 50 35.6824 49.5627 35.6824 49.0234V43.1066C39.6073 41.547 40.4561 39.4982 40.4561 38.0191C40.4561 37.7389 40.3357 37.4721 40.1254 37.2867ZM33.7293 48.0469H10.8481V46.9949H26.2044C26.7438 46.9949 27.181 46.5577 27.181 46.0184C27.181 45.4791 26.7438 45.0418 26.2044 45.0418H10.8481C10.8484 45.0286 10.8484 41.9398 10.8481 41.9268C10.8481 40.9169 11.6697 40.0954 12.6794 40.0954H19.1452C19.5107 41.4896 20.7815 42.5214 22.2887 42.5214C23.7959 42.5214 25.0667 41.4896 25.4322 40.0954H31.898C32.9077 40.0954 33.7293 40.9169 33.7293 41.9268C33.729 41.9398 33.729 48.0337 33.7293 48.0469ZM20.2595 35.274C16.6758 34.352 14.173 31.1196 14.173 27.4139V24.3455C17.445 23.3496 20.2992 21.3161 22.3105 18.5428L23.076 18.6779C27.3224 19.4277 30.4045 23.1018 30.4045 27.4139C30.4044 31.1196 27.9015 34.352 24.3179 35.274C23.8864 35.3851 23.5847 35.7741 23.5847 36.2198V39.2723C23.5847 39.9869 23.0032 40.5683 22.2887 40.5683C21.574 40.5683 20.9927 39.9869 20.9927 39.2723V36.2198C20.9927 35.7741 20.691 35.3851 20.2595 35.274ZM35.5747 41.0289C35.1706 39.3741 33.6754 38.1423 31.8979 38.1423H25.5378V36.9471C29.5895 35.5709 32.3575 31.7541 32.3575 27.4139C32.3575 22.1523 28.5969 17.6694 23.4156 16.7546L22.0357 16.5109C21.6572 16.4443 21.2744 16.6057 21.0582 16.9237L20.9722 17.0504C19.0758 19.8411 16.2294 21.8322 12.9577 22.6569C12.5239 22.7662 12.2198 23.1564 12.2198 23.6038V27.414C12.2198 31.7542 14.9879 35.571 19.0396 36.9472V38.1424H12.6794C10.9019 38.1424 9.40666 39.3742 9.00256 41.029C7.96135 40.5533 6.85442 39.8754 6.35168 39.0029C7.24915 38.9234 8.38206 38.6407 9.13401 37.7967C9.63362 37.2358 10.1417 36.2106 9.72463 34.5116C9.13137 32.0948 9.08362 28.2316 9.08362 28.1946C9.08362 22.9759 9.83254 19.0261 11.373 16.1197C13.4997 12.1073 17.0794 10.1568 22.3165 10.1568C27.5536 10.1568 31.1332 12.1073 33.26 16.1197C34.8005 19.0262 35.5493 22.9759 35.5493 28.1946C35.5493 28.8088 35.3679 32.4132 34.8526 34.5116C34.4356 36.2105 34.9437 37.2358 35.4433 37.7967C36.1952 38.6407 37.3282 38.9234 38.2257 39.0029C37.7229 39.8753 36.616 40.5531 35.5747 41.0289Z" fill="#2D2B2B"/>
<path d="M20.4029 25.7985C20.0214 25.417 19.4031 25.4171 19.0218 25.7986C18.8127 26.0076 18.5348 26.1227 18.2392 26.1227C17.9436 26.1227 17.6657 26.0077 17.4566 25.7986C17.0753 25.4172 16.457 25.4172 16.0755 25.7985C15.6941 26.1799 15.6941 26.7982 16.0754 27.1795C16.6534 27.7576 17.4217 28.0759 18.2391 28.0759C19.0565 28.0759 19.8248 27.7576 20.403 27.1795C20.7843 26.7981 20.7842 26.1798 20.4029 25.7985Z" fill="#2D2B2B"/>
<path d="M28.5021 25.7984C28.1208 25.4171 27.5024 25.4171 27.1211 25.7984C26.912 26.0075 26.634 26.1226 26.3384 26.1226C26.0427 26.1226 25.7649 26.0076 25.5558 25.7985C25.1746 25.4171 24.5562 25.4171 24.1748 25.7984C23.7933 26.1798 23.7933 26.7981 24.1747 27.1794C24.7526 27.7575 25.521 28.0758 26.3383 28.0758C27.1556 28.0758 27.9241 27.7575 28.5021 27.1795C28.8836 26.798 28.8835 26.1797 28.5021 25.7984Z" fill="#2D2B2B"/>
<path d="M24.4525 31.3772C24.071 30.996 23.4527 30.996 23.0713 31.3772C22.6399 31.8088 21.9376 31.8088 21.5061 31.3772C21.1247 30.996 20.5064 30.996 20.125 31.3772C19.7436 31.7588 19.7437 32.377 20.125 32.7584C20.7216 33.3549 21.5052 33.6531 22.2887 33.6531C23.0723 33.6531 23.8559 33.355 24.4525 32.7584C24.8338 32.3769 24.8338 31.7586 24.4525 31.3772Z" fill="#2D2B2B"/>
</svg>
